<svg width="400" height="220" viewBox="0 0 400 220" fill="none" xmlns="http://www.w3.org/2000/svg">
<path d="M172.629 134.611H175.581V156H172.629V134.611Z" fill="#FF5614"/>
<path d="M183.166 144.623V156.001H180.287V139.799H183.166V142.212C184.677 140.7 186.981 139.367 189.285 139.367C191.552 139.367 193.605 140.628 193.605 143.905V156.003H190.724V144.806C190.724 142.862 189.825 141.961 188.276 141.961C186.369 141.959 184.353 143.4 183.166 144.623Z" fill="#FF5614"/>
<path d="M208.384 140.736L207.521 143.041C206.657 142.428 205.073 141.818 203.381 141.818C201.87 141.818 200.575 142.431 200.575 143.834C200.575 145.384 202.159 145.886 203.85 146.426C206.406 147.181 208.996 148.01 208.996 151.179C208.996 154.708 206.368 156.435 203.13 156.435C200.467 156.435 198.27 155.355 197.226 154.346L198.27 152.149C199.277 152.94 201.15 153.949 203.092 153.949C204.892 153.949 206.223 153.121 206.223 151.681C206.223 150.24 204.819 149.738 203.2 149.198C200.826 148.515 197.909 147.541 197.909 144.229C197.909 140.952 200.356 139.367 203.56 139.367C205.864 139.367 207.628 140.196 208.384 140.736Z" fill="#FF5614"/>
<path d="M223.094 153.588C221.583 155.1 219.279 156.433 216.974 156.433C214.708 156.433 212.619 155.172 212.619 151.895V139.797H215.534V150.994C215.534 152.937 216.432 153.839 217.981 153.839C219.888 153.839 221.904 152.397 223.092 151.175V139.797H225.971V155.998H223.092V153.588H223.094Z" fill="#FF5614"/>
<path d="M233.269 145.992V156.001H230.39V139.799H233.269V143.689C234.206 141.132 236.615 139.367 238.992 139.367V142.283C237.3 142.644 234.672 143.47 233.269 145.992Z" fill="#FF5614"/>
<path d="M250.678 154.092C249.383 155.641 247.764 156.433 245.891 156.433C243.479 156.433 241.355 155.099 241.355 152.219C241.355 149.088 243.622 147.287 248.085 146.89L250.641 146.675V144.515C250.641 142.318 249.057 141.959 247.689 141.959C245.349 141.959 243.946 142.68 242.866 143.219L242.184 141.06C243.624 140.123 246.107 139.367 248.446 139.367C251.361 139.367 253.522 140.59 253.522 143.797V156.003H250.716L250.678 154.092ZM246.611 154.057C247.799 154.057 249.31 153.59 250.643 151.86V148.764L247.367 149.16C245.567 149.376 244.199 150.132 244.237 151.897C244.237 153.229 245.028 154.057 246.611 154.057Z" fill="#FF5614"/>
<path d="M260.818 144.623V156.001H257.938V139.799H260.818V142.212C262.329 140.7 264.633 139.367 266.937 139.367C269.204 139.367 271.257 140.628 271.257 143.905V156.003H268.378V144.806C268.378 142.862 267.479 141.961 265.93 141.961C264.02 141.959 262.005 143.4 260.818 144.623Z" fill="#FF5614"/>
<path d="M288.197 154.956C287.117 155.639 285.606 156.397 283.41 156.397C278.804 156.397 275.385 153.193 275.385 147.865C275.385 142.572 278.804 139.367 283.41 139.367C285.174 139.367 286.686 139.872 287.873 140.447L287.009 142.86C286.038 142.248 284.813 141.888 283.518 141.888C280.89 141.888 278.442 143.724 278.442 147.865C278.442 152.041 280.89 153.841 283.518 153.841C284.994 153.841 286.289 153.301 287.26 152.689L288.197 154.956Z" fill="#FF5614"/>
<path d="M299.091 156.432C294.269 156.432 291.101 153.228 291.101 147.97C291.101 142.642 294.485 139.364 298.732 139.364C303.015 139.364 305.354 142.569 305.354 146.097V147.932H294.124C294.159 152 296.571 153.836 299.593 153.836C301.501 153.836 303.012 153.115 304.021 152.36L304.92 154.449C303.66 155.461 301.717 156.432 299.091 156.432ZM294.34 145.74H302.51C302.186 143.076 300.891 141.707 298.659 141.707C296.606 141.707 294.914 143.003 294.34 145.74Z" fill="#FF5614"/>
<path d="M131.298 101.208L132.476 100.616C139.959 96.8485 144.251 90.2218 144.251 82.4378C144.251 76.5482 142.362 71.9121 138.638 68.6609C134.118 64.715 126.835 62.715 116.984 62.715C108.827 62.715 98.5309 64.1 94.3728 64.6821V123.862H110.637V103.757H117.573L129.083 123.862H147.114L131.298 101.208ZM116.606 93.9424H110.637V74.6069L111.261 74.5013C112.624 74.2689 114.654 74.1116 116.313 74.1116C123.383 74.1116 127.278 77.6304 127.278 84.0176C127.278 89.6748 122.691 93.9424 116.606 93.9424Z" fill="#FF5614"/>
<path d="M196.567 77.567C191.453 72.9591 184.346 70.4215 176.55 70.4215C168.858 70.4215 161.817 72.9591 156.725 77.5647C151.166 82.5928 148.228 89.7524 148.228 98.2664C148.228 106.778 151.166 113.928 156.725 118.944C161.812 123.536 168.854 126.067 176.55 126.067C184.35 126.067 191.458 123.536 196.567 118.944C202.13 113.94 205.073 106.79 205.073 98.2664C205.075 89.7406 202.132 82.5834 196.567 77.567ZM183.921 110.384C182.145 112.83 179.641 114.123 176.682 114.123C173.732 114.123 171.236 112.83 169.462 110.384C167.47 107.637 166.461 103.56 166.461 98.2664C166.461 92.9683 167.47 88.8862 169.459 86.128C171.236 83.6679 173.732 82.3674 176.679 82.3674C179.636 82.3674 182.14 83.6679 183.921 86.128C185.913 88.8838 186.925 92.9683 186.925 98.2664C186.925 103.562 185.913 107.639 183.921 110.384Z" fill="#FF5614"/>
<path d="M290.804 103.628V87.7688V87.0082H291.564H302.571V74.952H291.564H290.804V74.1914V63.1281L273.929 68.236L274.012 108.48C274.012 113.485 275.525 117.759 278.392 120.839C281.316 123.982 285.467 125.644 290.393 125.644C296.259 125.644 302.29 124.696 305.354 123.747V109.543C303.514 110.074 300.907 110.59 297.716 110.59C291.979 110.593 290.804 107.808 290.804 103.628Z" fill="#FF5614"/>
<path d="M259.459 77.567C254.345 72.9591 247.238 70.4215 239.443 70.4215C231.751 70.4215 224.709 72.9591 219.617 77.5647C214.058 82.5928 211.12 89.7524 211.12 98.2664C211.12 106.778 214.058 113.928 219.617 118.944C224.704 123.536 231.746 126.067 239.443 126.067C247.243 126.067 254.35 123.536 259.459 118.944C265.022 113.94 267.965 106.79 267.965 98.2664C267.965 89.7406 265.022 82.5834 259.459 77.567ZM246.811 110.384C245.035 112.83 242.531 114.123 239.572 114.123C236.622 114.123 234.125 112.83 232.352 110.384C230.359 107.637 229.35 103.56 229.35 98.2664C229.35 92.9683 230.359 88.8862 232.349 86.128C234.125 83.6679 236.622 82.3674 239.57 82.3674C242.526 82.3674 245.03 83.6679 246.811 86.128C248.803 88.8838 249.814 92.9683 249.814 98.2664C249.817 103.562 248.805 107.639 246.811 110.384Z" fill="#FF5614"/>
</svg>
