<svg width="176" height="96" viewBox="0 0 176 96" fill="none" xmlns="http://www.w3.org/2000/svg">
<path d="M166.039 63.2532C164.473 63.2532 163.46 62.2514 163.46 60.7033C163.46 59.1551 164.565 58.1534 166.039 58.1534C167.606 58.1534 168.619 59.1551 168.619 60.7033C168.619 62.1604 167.606 63.2532 166.039 63.2532ZM166.039 58.4266C164.75 58.4266 163.828 59.2462 163.828 60.7033C163.828 62.1604 164.842 62.98 166.039 62.98C167.329 62.98 168.251 62.1604 168.251 60.7033C168.251 59.2462 167.329 58.4266 166.039 58.4266ZM166.776 62.0693L165.855 60.8854H165.671V62.0693H165.118V59.2462H166.039C166.684 59.2462 167.053 59.5194 167.053 60.0658L166.5 60.8854L167.329 62.0693H166.776ZM166.039 59.6105H165.671V60.4301H166.039L166.592 59.9747L166.039 59.6105Z" fill="#0033A0"/>
<path d="M27.6569 32.2909L7.47998 63.2536H14.2978L19.4572 55.3308H31.0658V63.2536H37.6072V32.2909M30.9737 49.7757H23.0503C23.511 49.0472 30.9737 37.4817 30.9737 37.4817V49.7757Z" fill="#0033A0"/>
<path d="M48.4788 32.2909H42.1216V63.1625H48.4788V32.2909Z" fill="#0033A0"/>
<path d="M59.3503 32.2909H53.0853V63.1625H59.3503V32.2909Z" fill="#0033A0"/>
<path d="M73.2624 48.592C69.8535 47.7724 69.1164 47.226 69.2086 45.86C69.3007 44.5851 70.3141 43.9476 72.1568 43.9476C74.368 43.9476 77.0398 44.6761 79.3431 45.9511L79.7116 46.1332L80.6329 40.9424L80.4487 40.8513C78.0532 39.8496 75.2893 39.3032 72.2489 39.3032C69.3928 39.3032 66.9053 40.1228 65.339 41.6709C64.0492 42.8548 63.4042 44.494 63.4964 46.2243C63.5885 50.9597 65.9839 52.3257 71.604 53.6917C75.2893 54.6024 76.1185 55.0577 76.0263 56.788C76.0263 58.3362 75.0129 58.8826 72.5253 58.8826C69.8535 58.8826 66.9053 57.9719 64.3256 56.3327L63.957 56.0595L63.0357 61.2503L63.22 61.3414C65.2469 62.4342 68.6558 63.527 72.341 63.527C75.8421 63.527 78.5139 62.7074 80.0802 61.1592C81.37 59.9754 81.9228 58.3362 81.9228 56.2416C81.7385 51.2329 79.0667 50.0491 73.2624 48.592Z" fill="#0033A0"/>
<path d="M97.2168 57.9717L96.8483 58.0628C96.3876 58.1539 95.8348 58.2449 95.0978 58.2449C93.2551 58.2449 92.3338 57.4253 92.3338 55.6951V44.767H96.9404L97.0326 39.7584H92.3338V32.2909H86.161V39.7584H82.9363V44.767H86.161V56.6057C86.161 61.2501 88.7407 63.6179 93.9922 63.6179C95.7427 63.6179 96.7562 63.4357 97.6775 63.2536L97.9539 63.1625" fill="#0033A0"/>
<path d="M110.668 39.3032C106.706 39.3032 103.758 40.2139 101.363 41.1245L101.178 41.2156L102.008 46.1332L102.376 45.9511C105.232 44.7672 107.628 44.2208 109.931 44.2208C112.419 44.2208 113.616 45.2225 113.616 47.3171V47.9545C104.311 48.8652 99.7043 51.8704 99.7043 57.2433C99.7043 61.1592 102.376 63.7091 106.522 63.7091C109.378 63.7091 111.774 62.7074 113.985 60.7039C114.077 61.4324 114.445 63.2538 114.445 63.2538H119.881V47.1349C119.881 41.762 116.933 39.3032 110.668 39.3032ZM108.457 58.9736C106.891 58.9736 105.969 58.063 105.969 56.6059C105.969 53.9649 108.641 52.3257 113.616 51.6883V56.788C111.958 58.154 110.207 58.9736 108.457 58.9736Z" fill="#0033A0"/>
<path d="M136.097 57.9717L135.728 58.0628C135.267 58.1539 134.715 58.2449 133.978 58.2449C132.135 58.2449 131.214 57.4253 131.214 55.6951V44.767H135.82L135.912 39.7584H131.214V32.2909H124.949V39.7584H121.724V44.767H124.949V56.6057C124.949 61.2501 127.528 63.6179 132.872 63.6179C134.622 63.6179 135.636 63.4357 136.557 63.2536L136.834 63.1625" fill="#0033A0"/>
<path d="M157.747 56.2416C154.891 58.063 152.588 58.8826 150.008 58.8826C146.599 58.8826 144.48 56.697 144.112 52.8721H158.853L158.945 51.2329C158.945 43.3101 155.444 39.2121 148.626 39.2121C145.586 39.2121 143.191 40.1228 141.256 41.8531C138.952 44.0387 137.755 47.3171 137.755 51.5061C137.755 58.9736 142.177 63.618 149.271 63.618C152.772 63.618 155.905 62.7074 158.669 60.886L158.853 60.795L158.116 55.8773M144.204 48.8652C144.48 45.4957 146.047 43.5833 148.442 43.5833C151.667 43.5833 152.588 46.4064 152.68 48.8652H144.204Z" fill="#0033A0"/>
</svg>
