<svg width="400" height="220" viewBox="0 0 400 220" fill="none" xmlns="http://www.w3.org/2000/svg">
<path d="M101.117 114.611C101.117 116.888 102.069 117.576 105.511 117.576C108.952 117.576 110.488 116.517 112.711 111.965H113.505L112.711 119.165H91.4832V118.371C94.6602 117.577 94.977 116.836 94.977 113.871V96.1896C94.977 93.7542 94.3416 93.0126 91.4832 92.325V91.5312H104.612V92.325C101.86 93.0126 101.119 93.5958 101.119 96.0312V114.613L101.117 114.611ZM122.452 115.299C122.452 117.099 123.352 118.105 125.365 118.315V119.109H114.09V118.315C116.525 117.838 117.106 117.203 117.106 114.928V105.452C117.106 103.282 116.471 102.646 113.877 102.169V101.375L121.659 100.74H122.452V115.299ZM119.752 89.571C120.566 89.5729 121.346 89.897 121.922 90.4725C122.497 91.048 122.821 91.8279 122.823 92.6418C122.823 94.3356 121.446 95.7648 119.752 95.7648C118.928 95.7532 118.14 95.4204 117.557 94.8372C116.974 94.254 116.641 93.4664 116.629 92.6418C116.629 90.948 118.059 89.571 119.752 89.571ZM134.098 105.134C135.898 103.492 136.851 103.017 138.28 103.017C141.457 103.017 143.574 106.034 143.574 110.376C143.574 116.199 140.926 118.528 136.903 118.528C134.786 118.528 134.044 117.576 134.044 115.563V105.134H134.098ZM134.098 89.5692H133.305L126.052 90.0984V90.8922C127.694 91.1568 128.752 92.0046 128.752 93.54V119.163C131.452 119.692 134.098 119.851 137.488 119.851C146.223 119.851 149.559 115.299 149.559 109.845C149.559 104.657 145.853 100.634 141.036 100.634C138.494 100.634 136.271 101.692 134.154 103.915V89.5692H134.102H134.098ZM157.445 107.569C157.603 104.182 159.032 101.905 161.255 101.905C163.426 101.905 165.068 104.286 165.226 107.569H157.445ZM170.997 108.628C170.309 103.705 166.709 100.582 161.574 100.582C155.909 100.582 151.622 104.763 151.622 110.322C151.622 115.774 155.803 119.797 161.415 119.797C165.757 119.797 169.409 117.415 170.997 113.603H170.203C168.509 116.197 166.391 117.468 163.797 117.468C160.461 117.468 157.126 114.451 157.445 108.574H170.997V108.628ZM188.201 107.517C186.614 105.982 185.395 105.188 184.178 105.188C182.591 105.188 181.585 105.823 180.208 107.729V114.982C180.208 117.099 180.631 117.788 183.224 118.265V119.059H171.843V118.265C174.224 117.682 174.808 116.994 174.808 114.982V105.611C174.808 103.334 173.801 102.329 171.526 102.117V101.323L179.362 100.636H180.155V106.3H180.262C182.009 102.436 183.968 100.636 186.191 100.636C187.355 100.636 188.52 101.165 189.368 102.171L188.203 107.519L188.201 107.517ZM218.431 101.323V102.117C220.706 102.594 221.235 104.023 219.596 107.782L217.106 113.499L213.295 105.717C212.183 103.44 212.183 102.436 214.248 102.117V101.323H203.872H203.554H198.418V94.4418H197.518C194.977 97.671 192.066 100.477 189.843 101.854V102.754H193.072V114.19C193.072 118.267 195.772 119.854 199.16 119.854C201.808 119.854 203.554 118.902 204.931 116.677L204.348 116.148C203.502 117.154 202.708 117.577 201.754 117.577C199.214 117.577 198.472 115.884 198.472 112.971V102.754H203.289C205.883 102.754 206.677 103.706 207.789 106.09L214.354 119.854C212.183 125.731 210.277 128.061 206.941 128.061C206.202 128.061 205.672 128.008 204.508 127.638L203.395 133.038C203.903 133.119 204.417 133.155 204.931 133.144C208.637 133.144 210.702 131.556 212.554 127.215L221.554 106.727C223.035 103.445 223.619 102.756 225.894 102.175V101.381H218.431V101.329V101.323ZM270.257 114.188C270.575 116.569 271.792 117.946 274.492 118.476V119.269H260.782V118.476C263.798 117.734 264.328 115.988 263.798 112.388L261.523 96.6126H261.417L252.417 119.271H251.411L242.465 96.6126H242.358L239.923 112.865C239.446 116.094 240.081 118.265 243.206 118.476V119.269H233.148V118.476C236.112 118.369 237.435 116.623 238.071 112.388L240.823 94.3356C239.712 93.2232 238.229 92.4834 236.8 92.4294V91.6356H246.806L254.059 109.846L261.417 91.6356H270.84V92.4294C267.982 92.9586 267.346 94.3878 267.717 96.9294L270.257 114.188ZM276.663 105.346C276.663 103.388 275.975 102.646 273.857 102.275V101.482L281.215 100.794H282.009V113.923C282.009 116.04 283.386 117.046 285.345 117.046C287.145 117.046 288.257 116.305 289.792 113.817V104.923C289.792 103.44 288.838 102.594 286.986 102.275V101.482L294.345 100.794H295.138V114.982C295.138 117.363 295.615 117.892 297.997 118.53V119.323L289.792 120.011V115.669H289.686C287.674 118.686 285.451 120.011 282.54 120.011C278.834 120.011 276.611 118 276.611 114.559V105.348L276.663 105.346ZM302.18 102.911H298.951V102.011C301.174 100.634 304.139 97.8294 306.626 94.6002H307.526V101.482H313.403V102.911H307.526V113.182C307.526 116.04 308.268 117.788 310.809 117.788C311.762 117.788 312.555 117.365 313.403 116.359L313.985 116.888C312.662 119.111 310.916 120.065 308.268 120.065C304.88 120.065 302.18 118.477 302.18 114.4V102.911ZM316.897 105.346C316.897 103.388 316.208 102.646 314.091 102.275V101.482L321.449 100.794H322.243V113.923C322.243 116.04 323.62 117.046 325.578 117.046C327.378 117.046 328.491 116.305 330.026 113.817V104.923C330.026 103.44 329.072 102.594 327.22 102.275V101.482L334.579 100.794H335.372V114.982C335.372 117.363 335.849 117.892 338.231 118.53V119.323L330.026 120.011V115.669H329.92C327.908 118.686 325.685 120.011 322.772 120.011C319.068 120.011 316.843 118 316.843 114.559V105.348L316.897 105.346ZM350.512 116.253C349.295 117.469 348.237 118.105 347.125 118.105C345.643 118.105 344.637 116.834 344.637 114.876C344.637 112.494 346.014 111.382 350.46 109.476V116.251L350.512 116.253ZM355.912 107.465C355.912 102.542 351.889 100.794 348.025 100.794C343.843 100.794 340.931 103.017 339.979 106.829H340.718C341.831 104.871 343.683 103.865 346.066 103.865C349.295 103.865 350.512 105.4 350.512 108.523C346.118 110.111 339.025 110.536 339.025 115.299C339.025 117.892 341.46 119.957 344.372 119.957C346.543 119.957 348.237 119.428 350.037 117.84L350.46 117.469C351.36 119.269 352.577 119.957 354.802 119.957C357.396 119.957 358.983 118.74 359.142 116.515H358.402C358.189 117.628 357.712 118.157 356.971 118.157C356.177 118.157 355.86 117.469 355.86 115.828V107.463L355.912 107.465ZM362.9 94.6002C362.9 92.1126 362.106 91.2126 359.512 91.0524V90.2586L367.454 89.7294H368.248V114.928C368.248 117.309 368.777 117.84 371.423 118.476V119.269H359.512V118.476C362.106 118.053 362.9 117.205 362.9 114.928V94.6002Z" fill="#616265"/>
<path d="M85.0228 100.369C84.8104 100.105 84.2812 100.317 84.2812 100.317L75.9166 103.388C75.2812 101.8 74.5396 100.317 73.6936 98.9941L76.3936 91.6356C76.3936 91.6356 76.7122 90.894 76.4458 90.7356C76.129 90.5232 75.598 91.0524 75.598 91.0524L70.6749 95.0754C68.7793 93.0218 66.4939 91.366 63.9519 90.2046C62.9997 89.7816 61.9935 89.4108 60.9351 89.1462L59.3997 83.3231C59.3997 83.3231 59.2935 82.7399 58.8704 82.7399C58.4996 82.7399 58.3934 83.2691 58.3934 83.2691L57.4412 88.4046C56.3828 88.2462 55.2704 88.1922 54.1598 88.1922C50.5076 88.1922 47.2244 88.8798 44.4199 90.1506C43.2013 90.6798 42.0367 91.3674 40.9783 92.109L40.4491 92.4798L38.4907 87.1338C39.0739 86.6046 40.2367 84.7524 40.5031 83.5337C40.9261 81.7859 40.7677 80.9399 40.3447 79.6169C40.0261 78.6647 39.4447 77.7647 39.4447 77.1293C39.4813 76.7485 39.6501 76.3925 39.9217 76.1231C39.8155 75.4877 39.3925 75.2231 38.9155 75.1169C38.4385 75.0647 38.1217 75.1691 37.6987 75.2231C37.5925 75.0107 37.3819 75.0647 37.5403 74.4293C37.7527 73.4231 39.7111 72.9479 41.2987 72.3647C43.3111 71.5709 44.4217 70.1416 44.4757 67.8646C44.5107 67.1442 44.3338 66.4293 43.9669 65.8084C43.5999 65.1875 43.0591 64.6877 42.4111 64.3708C42.1987 65.0584 41.1925 65.9584 40.5049 66.3292C39.8173 66.7 38.9173 66.8584 38.2279 66.7C38.3863 65.4832 37.8571 64.423 36.9571 64C36.6925 64.5292 35.5801 65.2708 33.9403 65.2168C32.3005 65.1628 32.1925 64.7938 29.9172 64.7938C26.6358 64.7938 23.9358 66.7522 23.6172 69.6106C23.4048 71.4629 24.1464 73.0523 24.6756 73.8461C24.2526 74.1629 23.2986 75.0629 23.1402 75.3275C22.9278 75.0629 22.2402 74.6921 21.4986 75.2213C21.6048 75.6443 21.657 76.1213 21.4986 76.5983C21.3402 77.0753 20.1756 79.3505 20.0172 81.2567C19.8048 84.3797 21.6048 86.5506 23.1402 87.1338C22.8234 87.663 22.7172 88.1922 22.9818 88.617C23.1402 88.9338 23.4588 89.1984 24.0942 89.1984C23.8945 89.4162 23.763 89.6878 23.716 89.9796C23.6689 90.2713 23.7084 90.5704 23.8296 90.84C24.0942 91.5276 24.888 92.4816 25.5774 92.4816C25.5252 93.063 25.842 94.3878 25.9482 94.9692C25.7358 95.3922 25.4712 95.763 25.5252 96.5568C25.5774 97.4046 26.1084 98.0923 26.796 98.1985C26.9544 98.6215 27.1128 99.0463 27.3252 99.3109C27.5376 99.5755 27.7482 99.8941 28.2774 100.263C28.8066 100.58 29.3898 100.898 30.0252 100.898C30.7128 100.898 31.296 100.951 31.6128 100.846L31.7712 104.817C30.0774 109.582 29.2296 115.034 29.2296 120.963C29.2296 131.551 32.2465 140.922 38.0173 147.009C38.0173 147.009 38.3341 147.432 39.2881 148.016C39.2881 148.016 41.0881 144.945 43.8403 141.451C44.5279 140.551 45.3235 139.703 46.2236 138.857C47.6006 137.693 48.8696 136.634 50.1944 135.734C53.7422 133.299 57.8714 131.499 61.6821 130.705C57.3404 132.928 54.8528 134.147 50.7236 137.64C48.1298 139.863 44.0005 143.782 41.1421 149.128C41.7253 149.605 42.5191 150.08 43.4713 150.186C44.0545 149.499 47.1236 143.886 51.8882 139.386C61.4175 130.492 72.6927 128.428 78.5698 128.534C78.8866 126.099 79.0468 123.611 79.0468 121.017C79.0468 116.782 78.6238 112.707 77.7238 109L84.7654 101.219C84.7654 101.113 85.2424 100.636 85.03 100.371L85.0228 100.369Z" fill="#002663"/>
<path d="M32.7199 96.8754C32.2968 96.663 31.1844 96.0816 30.2844 96.1338C29.3844 96.186 28.5906 96.3462 27.849 96.8214C27.5322 96.609 27.426 96.186 27.6366 95.763C27.849 95.286 28.1136 95.2338 28.1136 95.2338L27.849 90.786C27.849 90.786 29.1198 89.886 29.4366 89.7798C29.581 89.7342 29.7062 89.6419 29.7926 89.5174C29.8789 89.393 29.9215 89.2434 29.9136 89.0922C30.6036 89.6153 31.2105 90.2398 31.7136 90.9444C32.1366 91.5276 32.349 92.1612 32.4012 92.8506C32.4534 93.54 32.4534 94.386 32.295 95.286C32.5596 95.4984 32.8243 95.709 32.8783 96.0798C32.9845 96.3984 32.8783 96.5586 32.7199 96.8754ZM73.3768 110.64C73.3246 109.792 72.3183 107.463 71.6829 106.934L82.2706 102.275L73.3768 110.64ZM44.3137 93.2232L53.2598 101.323C52.4138 101.8 51.089 103.123 50.7182 104.182L44.3137 93.2232ZM49.5554 109.211C49.2368 109.688 49.1324 109.953 49.0262 110.534C48.92 111.115 49.0262 111.434 49.0784 111.911L46.3261 110.059C46.3783 109.423 46.1677 108.365 46.1677 107.836C46.1677 107.784 46.1677 107.677 46.1155 107.623L49.5572 109.211H49.5554ZM34.4137 110.005C34.2553 109.688 33.4615 93.2232 33.4075 92.694L34.3075 92.0586V91.9002C33.6721 91.848 32.9305 91.6356 32.6659 91.2648L32.4012 86.2356C31.5012 86.1834 30.6012 85.8648 30.2844 85.548C29.8614 85.125 29.5428 84.5957 30.0198 83.6957C30.4428 84.0125 31.7676 84.3833 32.8783 84.3833C33.1429 84.3833 33.6199 84.9125 33.8845 85.0188C34.2013 85.125 34.7323 85.4418 34.9969 85.548C35.2093 85.6542 35.3677 86.1834 35.4199 86.3958C35.4721 86.6082 43.6783 107.73 43.8367 107.994C43.9951 108.207 44.4721 111.805 44.4721 112.071C44.5243 112.336 45.7429 115.194 45.9553 115.459C44.8429 115.407 43.0969 116.042 41.6137 117.471C40.1845 118.848 38.9137 121.919 38.6491 123.294C38.5969 122.5 34.6261 110.322 34.4137 110.005ZM44.8429 130.28C44.4721 133.509 43.6783 136.368 42.5137 138.38C41.7199 139.703 39.6031 142.297 38.8075 143.303C39.6013 141.662 40.2367 137.745 40.1845 134.728C40.1323 132.77 39.5491 128.376 40.0783 125.463C40.6615 122.34 41.5075 120.592 43.6243 118.688C44.6827 117.736 46.8536 116.465 49.9766 117.311L52.5182 122.022C51.1952 121.757 49.3952 121.969 48.1766 122.922C45.9535 124.615 45.2119 126.892 44.8411 130.28H44.8429ZM45.1075 136.686C45.7429 135.309 46.5368 131.392 46.7492 130.122C47.0138 128.428 47.3306 125.992 49.343 124.351C50.3492 123.557 51.9368 123.451 52.6244 123.609L55.4828 129.38C55.7474 129.963 56.5952 130.228 57.1244 130.174C54.3722 131.022 47.6474 134.199 45.1075 136.686ZM69.3537 118.211C68.8767 118.899 69.0351 119.588 69.3015 120.063L71.1015 123.399C71.5785 124.669 71.9493 125.305 72.4245 126.099H75.0706L71.7891 119.588L71.6307 116.094C70.9431 116.517 69.7785 117.523 69.3537 118.211Z" fill="white"/>
<path d="M57.1785 99.84C58.2909 99.6276 60.8307 99.8922 61.6785 100.263L59.0847 85.7045L57.1785 99.84ZM35.4721 86.3417C35.4199 86.1293 35.2597 85.6001 35.0491 85.4939C34.7845 85.3877 34.2553 85.0709 33.9367 84.9647C33.6721 84.8585 33.1429 84.3293 32.9305 84.3293C31.8181 84.3293 30.4951 83.9585 30.0721 83.6417C29.5951 84.5417 29.9137 85.0709 30.3367 85.4939C30.6535 85.8125 31.6075 86.1293 32.4535 86.1815L32.7181 91.2108C32.9305 91.5816 33.7243 91.8462 34.3597 91.8462V92.0586L33.4597 92.694L34.4659 110.005C34.6243 110.322 38.6473 122.499 38.7535 123.24C39.0181 121.811 40.2889 118.792 41.7182 117.417C43.1996 115.988 44.9474 115.353 46.0598 115.407C45.8474 115.142 44.5784 112.284 44.5784 112.019L43.943 107.942C43.7306 107.729 35.5783 86.5523 35.4721 86.3417ZM30.2845 82.3169C32.6137 82.3169 33.6721 83.2691 34.2553 83.8001C34.3075 83.0063 34.2031 82.3169 33.4615 81.7355C32.8783 81.2585 31.7677 80.8355 30.1801 80.8355C29.0677 80.8355 28.0093 81.1541 27.3216 81.7355C26.6862 82.2647 26.58 82.8479 26.7384 83.7479C26.8968 83.0603 28.3261 82.3169 30.2845 82.3169ZM26.103 70.2478C26.0508 71.1478 26.2614 72.0478 26.6862 72.577C26.8986 72.8956 27.48 73.477 27.9031 73.477C28.4863 73.4248 29.0155 72.3646 30.3907 72.3646C31.2907 72.4168 31.8721 73.6354 32.6137 73.6876C33.1969 73.7398 33.5137 73.1584 34.0951 73.1062C34.5721 73.054 34.7827 73.3186 35.1013 73.5832C35.3137 73.1062 35.5783 72.7894 36.3721 72.2062C37.2721 71.5186 40.3951 70.8832 41.7722 69.7186C42.4598 69.1354 42.566 68.0248 42.3554 67.2832C41.8262 67.9708 40.4491 68.7124 39.0739 68.8186C38.3863 68.8708 36.7447 68.554 36.1615 68.2372C36.4261 67.7602 36.5323 67.1788 36.3199 66.6496C35.8969 66.9664 33.9385 67.1788 33.1969 67.1788C32.4553 67.1788 30.9739 66.8602 29.8615 66.9142C27.3198 67.0726 26.2092 68.8204 26.103 70.2496V70.2478ZM30.3907 77.9231C35.7907 78.0293 38.1721 80.5169 38.2783 82.5293C38.5429 81.9461 38.4907 81.3647 38.4907 80.6771C38.4385 80.1479 37.6429 78.6125 37.5907 78.0833C37.5385 77.5541 37.6969 77.2355 37.8031 76.7603C37.4863 76.8125 36.2677 77.2895 35.7385 76.9187C35.2093 76.4957 35.5801 75.3833 34.8385 75.1187C34.1509 74.8541 32.9863 75.7019 32.2969 75.5957C31.6075 75.4895 30.9739 74.5373 30.2323 74.5373C29.4907 74.5373 29.1199 75.4373 28.1677 75.6497C27.48 75.8081 26.58 75.3851 26.1552 75.4373C25.6782 75.4895 25.4136 75.8081 25.203 76.2851C24.9906 76.7081 24.8322 76.9205 24.303 77.0267C23.88 77.1329 23.2446 76.7621 22.926 76.8143C23.1384 77.0267 23.2968 78.0311 23.0844 78.5621C22.8198 79.2497 22.2366 80.0435 22.1844 80.8913C22.1322 81.6851 22.3968 82.0037 22.6074 82.5851C22.5012 79.7267 25.6782 77.8205 30.3889 77.9267L30.3907 77.9231ZM27.003 88.194C26.6322 88.2462 25.8384 88.8816 25.4676 89.517C25.5738 89.94 25.9968 90.894 26.4738 91.1586C26.58 90.7356 27.057 89.994 27.3216 89.8356C27.6384 89.571 28.0093 89.4126 28.2739 89.3064C28.5385 89.148 28.6447 89.0418 28.6447 88.7232C28.6447 88.4046 28.5925 88.3002 28.4863 87.9816C28.7509 87.9293 29.2801 87.9816 29.4385 87.7691C29.5969 87.5567 29.7031 87.24 29.7031 86.9213C29.7031 86.6027 29.5447 86.5505 29.2801 86.4983C28.7341 86.446 28.1844 86.446 27.6384 86.4983L28.5385 86.0213C28.7509 85.9151 28.8031 85.7045 28.8553 85.5443C28.9075 85.3841 28.9075 85.0151 28.8031 84.5381C27.7969 84.5903 25.9968 85.4903 25.5216 85.8611L25.8924 86.7611L25.2048 86.7089C25.0986 87.186 25.1526 87.8736 25.3632 88.2966C25.8402 88.1904 26.58 88.1382 27.0048 88.1904L27.003 88.194ZM71.0476 109.369C70.9414 108.734 69.2476 106.721 66.4413 104.605C64.2183 102.911 60.9891 101.269 58.3413 101.323C53.8412 101.323 51.989 104.446 51.6704 106.034C51.458 106.986 51.512 108.046 51.7226 108.628C51.035 109.209 50.7164 109.74 50.6102 110.428C50.504 110.905 50.6102 111.645 51.0872 112.069C51.035 111.434 51.5102 110.64 51.8288 110.163C52.2518 109.58 52.9412 109.369 53.5226 108.999L53.6288 110.215C53.0474 110.532 52.3058 111.274 52.3058 111.645L52.358 113.657L53.8934 112.757L54.2102 113.392L53.627 116.938L54.4748 116.78L56.0625 117.415L54.527 118.686V119.215C54.527 119.215 54.7394 118.897 55.2687 118.951C55.7979 118.951 57.2271 119.586 57.2271 119.586L57.1749 119.903H56.5395H54.4226C54.3164 120.274 54.635 120.538 54.8456 120.697C55.2164 120.591 55.5873 120.432 55.7457 120.432C55.9581 120.432 56.4333 120.538 56.8041 120.591L56.3271 121.226C56.3271 121.226 56.0625 121.438 55.5855 121.332C55.3209 121.28 55.0562 121.651 55.0562 121.915C55.0562 122.232 55.2687 122.974 55.2687 122.974C55.5333 124.138 56.6979 123.874 56.8563 123.874C57.5979 123.822 60.0333 122.922 60.0333 122.922L57.7041 126.151L58.7103 129.645C62.3159 128.232 66.0602 127.203 69.8812 126.574C69.352 125.674 69.2458 125.303 68.5581 123.98L66.0165 118.157L66.3873 117.309C66.9687 117.522 67.8165 117.097 68.3997 116.674C68.9812 116.197 69.6184 115.403 69.8812 114.874C69.5104 114.661 69.2458 114.715 68.929 114.926C68.6121 115.137 68.3997 115.509 67.9767 115.349C67.4997 115.137 67.7643 114.661 67.7643 114.184C67.8165 113.707 67.2351 113.707 66.8121 114.078C66.3891 114.449 65.5413 114.291 64.9599 113.707C64.3785 113.124 61.6785 110.901 60.7245 110.372C59.3475 109.578 57.4431 109.366 56.0661 109.63C55.2723 109.789 54.689 110.107 54.3722 109.947L53.366 108.412L53.5244 108.306C53.8952 108.464 54.212 108.729 54.689 108.57C55.166 108.412 56.6475 108.093 57.9705 108.041C60.0351 107.989 62.4705 108.729 63.5829 109.206C63.6351 110.529 66.2829 112.222 67.4997 112.329C68.2808 112.435 69.0734 112.246 69.7228 111.799L67.1289 109.522L68.5059 107.775L70.9936 110.262C71.206 110.05 71.0998 109.681 71.0458 109.362L71.0476 109.369ZM55.3785 112.017C55.3785 112.017 56.4909 111.382 57.5493 111.169C59.0847 110.853 60.8307 111.753 62.0493 112.705L61.8369 113.076L60.0891 113.499C59.7705 113.182 59.0829 113.076 58.3953 113.076C57.7599 113.076 57.2829 113.34 57.2829 113.34L57.6537 113.923L56.8599 114.136C56.4891 113.659 55.9599 113.13 55.4307 112.971V112.019L55.3785 112.017ZM52.7306 108.046C52.2536 106.511 53.5244 104.975 54.0536 104.446L54.9015 106.405C54.266 106.775 53.2076 107.517 52.7306 108.046ZM60.7767 106.298C59.9829 105.715 57.2289 105.821 56.1183 106.086L55.3245 103.757C55.9599 103.28 57.1245 103.015 58.1829 103.015C59.2413 103.015 60.4059 103.28 61.2537 103.703L60.7767 106.298ZM66.0705 108.68C64.9581 107.938 62.7351 106.88 62.0997 106.667L63.0519 104.18C63.8979 104.603 66.8625 106.403 67.3395 106.88L66.0687 108.68H66.0705ZM65.7537 102.065C66.7599 102.436 68.8768 104.182 69.406 104.606L74.806 93.1188L65.7537 102.065Z" fill="white"/>
<path d="M376.877 112.969C378.517 112.969 380 114.24 380 116.146C380 118.053 378.517 119.323 376.877 119.323C375.237 119.323 373.754 118.053 373.754 116.146C373.754 114.294 375.235 112.969 376.877 112.969ZM376.877 118.686C378.2 118.686 379.258 117.68 379.258 116.199C379.258 114.717 378.2 113.711 376.877 113.711C375.554 113.711 374.494 114.717 374.494 116.199C374.494 117.628 375.552 118.686 376.877 118.686ZM375.658 114.503H376.983C377.829 114.503 378.306 114.768 378.306 115.509C378.306 116.145 377.935 116.409 377.406 116.461L378.358 117.997H377.671L376.823 116.515H376.294V117.997H375.658V114.503ZM376.294 115.986H376.877C377.3 115.986 377.617 115.934 377.617 115.457C377.617 115.034 377.248 114.98 376.877 114.98H376.294V115.986ZM200.537 129.063H91.9583V130.176H200.537V129.063ZM371.954 129.063H215.36V130.176H371.954V129.063ZM154.48 139.651H157.338V154.686H154.48V139.651ZM165.703 139.651H168.297L174.649 150.345H174.701V139.651H177.295V154.686H174.701L168.349 143.993H168.297V154.686H165.703V139.651ZM186.085 150.185C187.143 151.72 188.785 152.462 190.637 152.462C192.014 152.462 193.814 151.985 193.814 150.555C193.814 149.391 192.701 149.02 190.691 148.597L188.997 148.226C186.562 147.697 184.445 146.797 184.445 144.045C184.445 140.868 187.462 139.386 190.322 139.386C192.916 139.386 195.032 140.339 196.622 142.403L194.293 144.151C193.551 142.774 192.174 141.98 190.322 141.98C188.68 141.98 187.463 142.616 187.463 143.622C187.463 144.839 188.893 145.157 190.586 145.528L192.439 145.951C194.662 146.428 196.832 147.328 196.832 150.186C196.832 153.839 193.339 155.109 190.216 155.109C187.728 155.109 185.134 154.051 183.703 151.932L186.086 150.185H186.085ZM216.366 150.08C216.366 153.151 213.931 155.055 210.277 155.055C206.623 155.055 204.189 153.097 204.189 150.08V139.703H207.047V149.339C207.047 151.191 207.841 152.355 210.277 152.355C212.712 152.355 213.506 151.191 213.506 149.339V139.703H216.366V150.08ZM224.464 139.651H230.764C233.941 139.651 235.848 141.557 235.848 144.203C235.848 147.591 233.571 148.332 232.883 148.651L236.271 154.686H232.987L230.077 149.18H227.377V154.686H224.518V139.651H224.464ZM227.323 146.639H230.394C231.823 146.639 232.883 145.791 232.883 144.362C232.883 142.985 231.929 142.085 229.971 142.085H227.323V146.639ZM246.858 139.651H250.14L255.169 154.686H252.204L251.358 151.774H245.64L244.794 154.686H241.829L246.858 139.651ZM248.5 142.403L246.381 149.285H250.565L248.5 142.403ZM261.628 139.651H264.223L270.575 150.345H270.628V139.651H273.221V154.686H270.628L264.275 143.993H264.223V154.686H261.628V139.651ZM291.009 144.68C290.799 143.039 289.421 141.874 287.674 141.874C284.657 141.874 283.386 144.522 283.386 147.168C283.386 149.762 284.657 152.462 287.674 152.462C289.632 152.462 290.745 151.191 291.328 149.445L293.922 150.609C292.703 153.626 290.692 155.057 287.674 155.057C282.857 155.057 280.421 151.405 280.421 147.17C280.421 142.934 283.121 139.282 287.674 139.282C290.692 139.282 293.022 140.87 293.761 143.994L291.009 144.68ZM300.061 139.651H310.755V142.245H302.92V145.686H310.12V148.174H302.92V152.039H311.338V154.632H300.061V139.651Z" fill="#616265"/>
</svg>
