<svg width="400" height="220" viewBox="0 0 400 220" fill="none" xmlns="http://www.w3.org/2000/svg">
<path d="M340.579 143.97C339.945 143.148 339.953 141.728 339.953 139.272V97.5432V89.2153L337.565 88.1641C334.96 89.6431 332.234 90.8959 329.416 91.9092C326.665 92.9638 323.83 93.7879 320.941 94.3729V97.0915C322.216 97.2886 323.586 97.5185 324.447 98.2904C325.163 98.9394 325.41 99.9331 325.492 101.387V139.313C325.492 141.777 325.492 143.19 324.868 144.011C324.242 144.832 323.224 145.062 321.893 145.316V148.027H343.569V145.316C342.238 145.062 341.186 144.758 340.579 143.97Z" fill="#231F20"/>
<path d="M138.783 111.39C135.572 108.105 130.841 106.463 125.248 106.463C113.11 106.463 104.782 115.242 104.782 128.029C104.782 140.422 112.871 149.588 125.248 149.588C133.88 149.588 139.514 146.023 143.48 138.566L141.468 137.006C141.468 137.006 138.347 140.357 131.859 140.357C124.69 140.357 119.245 134.838 118.653 125.705H143.645C143.916 119.603 141.969 114.675 138.783 111.39ZM118.637 122.198C119.007 113.509 122.095 109.222 125.133 109.222C128.591 109.222 130.291 113.485 130.455 122.198H118.637Z" fill="#231F20"/>
<path d="M232.531 111.39C229.32 108.105 224.581 106.463 218.988 106.463C206.858 106.463 198.522 115.242 198.522 128.029C198.522 140.422 206.612 149.588 218.988 149.588C227.62 149.588 233.254 146.023 237.229 138.566L235.209 137.006C235.209 137.006 232.096 140.357 225.608 140.357C218.438 140.357 212.993 134.838 212.394 125.705H237.385C237.664 119.603 235.71 114.675 232.531 111.39ZM212.377 122.198C212.755 113.509 215.835 109.222 218.874 109.222C222.339 109.222 224.039 113.485 224.204 122.198H212.377Z" fill="#231F20"/>
<path d="M316.063 143.969C315.455 143.148 315.431 141.727 315.431 139.272V121.68C315.431 113.262 310.963 106.454 297.461 106.454C292.287 106.454 288.674 107.045 285.807 108.548C282.941 110.051 281.291 112.728 281.291 115.225C281.291 118.305 283.237 120.744 286.694 120.744C290.152 120.744 292 118.838 292.69 115.488C292.861 114.15 293.226 112.844 293.774 111.611C294.045 111.093 294.459 110.663 294.967 110.372C295.475 110.081 296.055 109.941 296.64 109.969C299.145 109.969 301.083 112.572 301.083 117.286V123.035C296.412 122.884 291.743 123.387 287.212 124.53C280.042 126.6 276.987 131.141 276.987 137.276C276.987 144.117 281.857 149.02 289.364 149.02C296.082 149.02 300.287 145.661 302.356 141.629C303.432 145.374 307.037 148.404 313.271 148.404C315.209 148.447 317.147 148.312 319.061 148.002V145.292C319.061 145.292 316.86 145.062 316.063 143.969ZM295.268 141.506C292.64 141.506 290.135 139.633 290.135 134.861C290.135 130.377 292.681 126.419 301.083 126.049V134.664C301.083 139.469 298.332 141.465 295.268 141.465V141.506Z" fill="#231F20"/>
<path d="M193.209 143.863C192.642 143.206 192.428 142.147 192.387 140.381V121.04C192.387 116.745 191.763 112.959 189.464 110.364C186.852 107.358 183.46 106.512 179.608 106.512C176.561 106.489 173.561 107.255 170.897 108.734C168.234 110.214 165.998 112.356 164.407 114.955V107.563L161.984 106.463C159.624 107.639 157.181 108.641 154.675 109.46C152.029 110.355 149.334 111.093 146.601 111.67V114.388C147.882 114.585 149.246 114.815 150.108 115.587C150.97 116.359 151.168 117.706 151.184 119.833V140.365C151.127 142.131 150.913 143.19 150.363 143.847C149.542 144.841 147.85 145.062 146.634 145.26V147.97H170.229V145.26C169.022 145.062 167.347 144.841 166.501 143.847C165.934 143.19 165.721 142.131 165.68 140.365V121.911C165.577 119.853 166.186 117.823 167.404 116.162C168.023 115.389 168.808 114.766 169.701 114.34C170.594 113.913 171.572 113.694 172.562 113.698C173.347 113.649 174.131 113.793 174.847 114.118C175.563 114.443 176.188 114.939 176.668 115.562C177.563 116.696 177.908 118.511 177.908 120.49V140.381C177.851 142.147 177.637 143.206 177.087 143.863C176.266 144.857 174.574 145.079 173.358 145.276V147.986H196.954V145.276C195.738 145.063 194.096 144.857 193.209 143.863Z" fill="#231F20"/>
<path d="M269.858 106.413C264.314 106.413 260.134 110.281 258.262 115.217V107.53L255.872 106.462C253.512 107.639 251.069 108.64 248.562 109.46C245.917 110.355 243.221 111.093 240.489 111.67V114.388C241.77 114.585 243.134 114.815 243.996 115.587C244.711 116.236 244.957 117.229 245.039 118.65V140.274C244.99 142.098 244.776 143.173 244.218 143.847C243.396 144.841 241.697 145.062 240.489 145.259V147.97H264.068V145.259C262.853 145.062 261.185 144.841 260.339 143.847C259.781 143.198 259.518 142.204 259.518 140.455V121.894C259.489 120.143 259.767 118.4 260.339 116.745C261.111 114.692 262.623 113.673 263.92 113.673C267.797 113.673 267.624 120.777 272.732 120.777C276.502 120.777 278.038 117.492 277.997 114.117C277.931 110.372 275.402 106.413 269.858 106.413Z" fill="#231F20"/>
<path d="M189.242 77.9561L192.132 83.8115C192.155 83.8556 192.187 83.8935 192.227 83.9221C192.267 83.9507 192.314 83.9693 192.363 83.976L198.818 84.9121C198.873 84.9211 198.925 84.9453 198.968 84.982C199.01 85.0188 199.042 85.0665 199.059 85.1201C199.076 85.1738 199.078 85.2313 199.064 85.2858C199.051 85.3405 199.022 85.3902 198.982 85.4295L194.309 89.9794C194.274 90.0145 194.249 90.0574 194.234 90.1049C194.22 90.152 194.217 90.202 194.227 90.2505L195.327 96.6727C195.336 96.728 195.33 96.7845 195.309 96.8361C195.287 96.8878 195.252 96.9327 195.207 96.9658C195.162 96.9989 195.109 97.0188 195.053 97.0236C194.998 97.0284 194.942 97.018 194.892 96.993L189.143 93.9626C189.099 93.9381 189.05 93.9252 189 93.9252C188.949 93.9252 188.9 93.9381 188.856 93.9626L183.107 96.993C183.057 97.018 183.001 97.0284 182.945 97.0236C182.89 97.0188 182.836 96.9989 182.792 96.9658C182.746 96.9327 182.712 96.8878 182.69 96.8361C182.669 96.7845 182.663 96.728 182.671 96.6727L183.772 90.2505C183.779 90.202 183.776 90.1526 183.762 90.1057C183.747 90.0588 183.723 90.0156 183.69 89.9794L179.017 85.4295C178.976 85.3902 178.948 85.3405 178.934 85.2858C178.921 85.2313 178.923 85.1738 178.939 85.1201C178.957 85.0665 178.988 85.0188 179.031 84.982C179.074 84.9453 179.126 84.9211 179.181 84.9121L185.636 83.976C185.685 83.9693 185.732 83.9507 185.771 83.9221C185.812 83.8935 185.844 83.8556 185.866 83.8115L188.757 77.9561C188.785 77.917 188.821 77.885 188.863 77.8631C188.905 77.8413 188.952 77.8297 189 77.8297C189.047 77.8297 189.094 77.8413 189.136 77.8631C189.178 77.885 189.215 77.917 189.242 77.9561Z" fill="#231F20"/>
<path d="M217.502 77.9555L220.376 83.8113C220.397 83.8551 220.427 83.8929 220.466 83.9216C220.505 83.9505 220.55 83.969 220.598 83.9755L227.053 84.9116C227.11 84.9195 227.163 84.9425 227.206 84.979C227.25 85.0152 227.283 85.0629 227.301 85.1168C227.319 85.1707 227.321 85.2285 227.308 85.2835C227.295 85.3388 227.266 85.3891 227.226 85.4292L222.553 89.9789C222.517 90.0137 222.49 90.0563 222.475 90.1035C222.459 90.1506 222.455 90.2009 222.462 90.25L223.571 96.6722C223.581 96.7286 223.575 96.7864 223.553 96.8395C223.532 96.8923 223.496 96.938 223.45 96.9714C223.403 97.0048 223.349 97.0248 223.292 97.0284C223.235 97.0321 223.178 97.0197 223.128 96.9928L217.379 93.962C217.336 93.9376 217.288 93.9247 217.239 93.9247C217.19 93.9247 217.142 93.9376 217.099 93.962L211.351 96.9928C211.301 97.0175 211.245 97.0281 211.189 97.0234C211.133 97.0183 211.08 96.9984 211.035 96.9653C210.99 96.9321 210.955 96.8872 210.934 96.8356C210.913 96.7839 210.906 96.7275 210.915 96.6722L212.016 90.25C212.024 90.2009 212.019 90.1506 212.003 90.1035C211.988 90.0563 211.961 90.0137 211.926 89.9789L207.236 85.4292C207.196 85.3897 207.167 85.34 207.154 85.2855C207.14 85.2308 207.142 85.1735 207.159 85.1199C207.176 85.0663 207.207 85.0183 207.25 84.9815C207.293 84.9447 207.345 84.9206 207.4 84.9116L213.855 83.9755C213.904 83.9676 213.95 83.9485 213.99 83.9202C214.029 83.8915 214.062 83.8542 214.085 83.8113L216.968 77.9555C216.994 77.9075 217.033 77.8674 217.08 77.8396C217.127 77.8115 217.18 77.7969 217.235 77.7969C217.29 77.7969 217.343 77.8115 217.39 77.8396C217.437 77.8674 217.476 77.9075 217.502 77.9555Z" fill="#231F20"/>
<path d="M245.762 77.9558L248.644 83.8115C248.668 83.8544 248.7 83.8918 248.74 83.9204C248.78 83.9488 248.826 83.9679 248.874 83.9757L255.33 84.9119C255.385 84.9208 255.437 84.945 255.48 84.9818C255.522 85.0185 255.554 85.0662 255.571 85.1201C255.588 85.1737 255.59 85.231 255.576 85.2857C255.563 85.3402 255.534 85.3899 255.494 85.4295L250.821 89.9791C250.788 90.0153 250.763 90.0585 250.749 90.1054C250.735 90.1523 250.731 90.2017 250.739 90.2502L251.839 96.6724C251.848 96.7277 251.841 96.7841 251.82 96.8358C251.799 96.8874 251.764 96.9324 251.719 96.9655C251.674 96.9986 251.621 97.0185 251.565 97.0236C251.51 97.0284 251.454 97.0177 251.404 96.9927L245.655 93.9622C245.612 93.9378 245.564 93.9249 245.515 93.9249C245.466 93.9249 245.418 93.9378 245.376 93.9622L239.627 96.9927C239.577 97.0199 239.52 97.0323 239.463 97.0286C239.406 97.025 239.351 97.0051 239.305 96.9716C239.258 96.9382 239.222 96.8925 239.201 96.8397C239.179 96.7867 239.173 96.7288 239.183 96.6724L240.292 90.2502C240.3 90.2011 240.295 90.1509 240.28 90.1037C240.264 90.0566 240.237 90.0139 240.202 89.9791L235.529 85.4295C235.488 85.3893 235.46 85.3391 235.447 85.2838C235.433 85.2288 235.436 85.1709 235.454 85.117C235.472 85.0631 235.504 85.0154 235.548 84.9792C235.592 84.9427 235.645 84.9197 235.701 84.9119L242.156 83.9757C242.204 83.969 242.249 83.9507 242.288 83.9218C242.327 83.8932 242.358 83.8553 242.378 83.8115L245.269 77.9558C245.297 77.9168 245.334 77.885 245.377 77.8631C245.42 77.8413 245.467 77.8297 245.515 77.8297C245.563 77.8297 245.611 77.8413 245.654 77.8631C245.696 77.885 245.733 77.9168 245.762 77.9558Z" fill="#231F20"/>
<path d="M274.014 77.9561L276.905 83.8118C276.927 83.8556 276.959 83.8935 276.999 83.9221C277.039 83.9508 277.086 83.9693 277.135 83.976L283.614 84.9122C283.67 84.9211 283.722 84.9453 283.765 84.9821C283.807 85.0188 283.839 85.0665 283.856 85.1204C283.873 85.1741 283.875 85.2313 283.861 85.2861C283.848 85.3405 283.819 85.3902 283.779 85.4295L279.106 89.9794C279.072 90.0156 279.048 90.0588 279.034 90.1057C279.02 90.1526 279.016 90.202 279.023 90.2506L280.124 96.6728C280.133 96.7281 280.126 96.7845 280.105 96.8361C280.084 96.8878 280.049 96.9327 280.004 96.9658C279.959 96.9989 279.906 97.0189 279.85 97.0239C279.794 97.0287 279.739 97.018 279.689 96.993L273.94 93.9626C273.896 93.9382 273.846 93.9252 273.796 93.9252C273.746 93.9252 273.696 93.9382 273.652 93.9626L267.903 96.993C267.853 97.018 267.798 97.0287 267.742 97.0239C267.686 97.0189 267.633 96.9989 267.588 96.9658C267.543 96.9327 267.508 96.8878 267.487 96.8361C267.466 96.7845 267.459 96.7281 267.468 96.6728L268.569 90.2506C268.576 90.202 268.573 90.1526 268.558 90.1057C268.544 90.0588 268.519 90.0156 268.487 89.9794L263.814 85.4295C263.773 85.3902 263.745 85.3405 263.731 85.2861C263.717 85.2313 263.719 85.1741 263.736 85.1204C263.753 85.0665 263.785 85.0188 263.828 84.9821C263.87 84.9453 263.922 84.9211 263.978 84.9122L270.433 83.976C270.482 83.9693 270.528 83.9508 270.568 83.9221C270.608 83.8935 270.641 83.8556 270.663 83.8118L273.554 77.9561C273.581 77.9218 273.616 77.894 273.656 77.8749C273.696 77.8561 273.74 77.8463 273.784 77.8463C273.828 77.8463 273.871 77.8561 273.911 77.8749C273.951 77.894 273.986 77.9218 274.014 77.9561Z" fill="#231F20"/>
<path d="M302.274 77.9558L305.165 83.8116C305.185 83.8553 305.216 83.8932 305.255 83.9219C305.293 83.9508 305.339 83.969 305.387 83.9758L311.842 84.9119C311.898 84.9198 311.951 84.9428 311.995 84.9793C312.038 85.0155 312.071 85.0632 312.089 85.1171C312.107 85.171 312.109 85.2288 312.096 85.2838C312.083 85.3391 312.055 85.3894 312.014 85.4295L307.341 89.9791C307.305 90.0139 307.279 90.0566 307.263 90.1038C307.247 90.1509 307.243 90.2012 307.251 90.2503L308.359 96.6725C308.369 96.7289 308.363 96.7867 308.342 96.8398C308.32 96.8926 308.284 96.9383 308.238 96.9717C308.192 97.0051 308.137 97.025 308.08 97.0287C308.023 97.0323 307.966 97.02 307.916 96.9928L302.167 93.9623C302.124 93.9379 302.076 93.925 302.027 93.925C301.979 93.925 301.93 93.9379 301.888 93.9623L296.139 96.9928C296.089 97.0177 296.033 97.0284 295.977 97.0236C295.922 97.0186 295.868 96.9987 295.824 96.9655C295.779 96.9324 295.744 96.8875 295.722 96.8359C295.701 96.7842 295.695 96.7278 295.704 96.6725L296.755 90.2503C296.762 90.2012 296.758 90.1509 296.743 90.1038C296.727 90.0566 296.7 90.0139 296.665 89.9791L292 85.4295C291.959 85.3899 291.931 85.3403 291.917 85.2858C291.904 85.2311 291.906 85.1738 291.922 85.1202C291.939 85.0663 291.971 85.0186 292.014 84.9818C292.056 84.945 292.108 84.9209 292.164 84.9119L298.619 83.9758C298.667 83.9679 298.713 83.9488 298.753 83.9205C298.793 83.8918 298.826 83.8545 298.849 83.8116L301.732 77.9558C301.757 77.9059 301.796 77.8638 301.844 77.8343C301.891 77.8048 301.947 77.7894 302.003 77.7894C302.059 77.7894 302.114 77.8048 302.162 77.8343C302.21 77.8638 302.249 77.9059 302.274 77.9558Z" fill="#231F20"/>
<path d="M166.648 81.0031C165.211 79.4755 163.018 78.5966 160.136 78.5966C154.757 78.5966 150.781 82.6045 150.781 88.2713C150.781 93.7736 154.641 97.839 160.136 97.839C163.963 97.839 166.591 96.41 168.349 93.1084L166.911 91.9176C165.835 92.9214 164.407 93.4612 162.936 93.4205C159.98 93.4205 157.779 91.5564 157.286 88.0577H168.849C168.981 84.5837 168.061 82.5222 166.648 81.0031ZM160.078 80.8633C161.434 80.8633 162.476 82.0543 162.501 85.791H157.196C157.376 81.9392 158.912 80.8714 160.086 80.8714L160.078 80.8633Z" fill="#231F20"/>
<path d="M147.439 94.5787C147.135 94.2256 147.061 93.626 147.061 92.5419V85.1999C147.149 83.4702 146.603 81.768 145.525 80.4117C144.942 79.7955 144.229 79.3161 143.438 79.0079C142.647 78.6997 141.798 78.5705 140.951 78.6295C138.796 78.7095 136.747 79.5878 135.202 81.0935V71.8213L134.06 71C134.06 71 132.032 72.2648 127.104 72.2648H106.022L105.94 81.9392H108.018C108.018 81.9392 109.053 74.4001 114.514 74.1865V92.9116C114.541 93.2226 114.497 93.5359 114.388 93.8284C114.279 94.1212 114.106 94.3859 113.882 94.6034C113.398 94.9397 112.828 95.1334 112.239 95.1617V97.1165H123.285V95.203C122.696 95.1758 122.127 94.9821 121.643 94.6444C121.15 94.2256 121.002 93.626 121.002 92.5419V74.1455C123.811 74.1455 125.675 74.1455 127.03 74.9669C128.55 75.8949 128.854 77.6442 128.854 79.5249V92.5419C128.951 93.244 128.818 93.9584 128.476 94.5787C128.009 94.956 127.433 95.1746 126.833 95.203V97.1575H137.313V95.203C136.713 95.1752 136.137 94.9565 135.67 94.5787C135.328 93.9584 135.196 93.244 135.292 92.5419V85.5858C135.244 84.6691 135.514 83.7641 136.056 83.0233C136.32 82.691 136.652 82.4198 137.031 82.2284C137.409 82.0369 137.825 81.93 138.249 81.9148C138.598 81.8904 138.948 81.9524 139.268 82.0959C139.587 82.239 139.866 82.4588 140.08 82.7359C140.494 83.3829 140.687 84.1464 140.631 84.9124V92.5338C140.631 93.6179 140.557 94.1762 140.253 94.5706C139.786 94.9484 139.21 95.1671 138.61 95.1946V97.1494H149.09V95.203C148.487 95.1783 147.908 94.9593 147.439 94.5787Z" fill="#231F20"/>
<path d="M99.0493 122.888V114.675L96.5856 112.852C93.0768 114.109 89.4701 115.073 85.8024 115.734C81.5562 116.482 77.2702 116.981 72.9659 117.229V120.613C75.5422 120.963 78.0876 121.512 80.5791 122.255C84.0202 123.356 85.5066 125.261 85.5066 128.062V139.683C83.2536 140.272 80.9367 140.584 78.608 140.611C67.0198 140.611 57.0496 131.256 57.0496 113.583C57.0496 97.2311 65.2623 89.5522 72.7029 89.5522C77.4417 89.5522 80.9157 92.2295 85.1206 96.6562C88.116 99.9837 90.7913 103.586 93.1116 107.415H96.5527C96.5527 107.415 96.4048 94.028 96.4048 89.0349C96.4048 89.0349 87.1821 84.0414 73.5899 84.0414C64.4657 84.0414 56.4254 86.8996 50.4055 92.2542C44.0817 97.847 40 106.388 40 116.35C40 126.312 43.4329 134.648 49.4693 140.602C55.3496 146.401 63.242 149.735 72.5471 149.735C78.7301 149.897 84.8492 148.448 90.3029 145.53C96.1831 142.615 98.9755 139.075 99.0412 138.96L99.0493 122.888Z" fill="#231F20"/>
<path d="M347.672 142.639C347.63 141.804 347.756 140.968 348.048 140.183C348.337 139.398 348.784 138.681 349.359 138.074C349.937 137.468 350.631 136.984 351.4 136.654C352.169 136.324 352.997 136.154 353.833 136.154C354.67 136.154 355.498 136.324 356.267 136.654C357.036 136.984 357.73 137.468 358.305 138.074C358.88 138.681 359.327 139.398 359.619 140.183C359.908 140.968 360.034 141.804 359.992 142.639C360.034 143.475 359.908 144.311 359.619 145.096C359.327 145.881 358.88 146.598 358.305 147.205C357.73 147.812 357.036 148.295 356.267 148.625C355.498 148.955 354.67 149.126 353.833 149.126C352.997 149.126 352.169 148.955 351.4 148.625C350.631 148.295 349.937 147.812 349.359 147.205C348.784 146.598 348.337 145.881 348.048 145.096C347.756 144.311 347.63 143.475 347.672 142.639ZM359.293 142.639C359.293 141.193 358.72 139.806 357.696 138.783C356.674 137.761 355.287 137.186 353.842 137.186C352.393 137.186 351.007 137.761 349.985 138.783C348.963 139.806 348.388 141.193 348.388 142.639C348.377 143.359 348.508 144.073 348.778 144.74C349.047 145.408 349.446 146.015 349.951 146.526C350.459 147.037 351.063 147.441 351.728 147.716C352.393 147.991 353.106 148.13 353.825 148.126C354.549 148.127 355.265 147.984 355.933 147.706C356.601 147.428 357.207 147.02 357.715 146.506C358.224 145.992 358.625 145.381 358.897 144.711C359.167 144.04 359.301 143.322 359.293 142.598V142.639ZM351.13 139.182H354.179C354.577 139.15 354.979 139.198 355.36 139.324C355.742 139.449 356.093 139.649 356.396 139.913C356.587 140.111 356.736 140.347 356.834 140.606C356.932 140.864 356.974 141.14 356.96 141.416C356.977 141.85 356.854 142.278 356.612 142.639C356.371 143.001 356.023 143.277 355.616 143.428L357.177 145.711H355.066L353.735 143.715H352.913V145.711H351.091L351.13 139.182ZM354.145 142.336C354.777 142.336 355.13 142.048 355.13 141.564C355.13 141.038 354.743 140.783 354.128 140.783H352.955V142.369L354.145 142.336Z" fill="#231F20"/>
</svg>
