<svg width="400" height="220" viewBox="0 0 400 220" fill="none" xmlns="http://www.w3.org/2000/svg">
<mask id="mask0_1159_442" style="mask-type:luminance" maskUnits="userSpaceOnUse" x="20" y="87" width="360" height="46">
<path d="M20 87H380V132.474H20V87Z" fill="white"/>
</mask>
<g mask="url(#mask0_1159_442)">
<path fill-rule="evenodd" clip-rule="evenodd" d="M203.229 92.1499C201.906 90.0676 199.524 89.3002 197.618 89.3002H178.665L158.971 132.309H168.871L176.39 115.489H181.631C181.631 115.489 183.165 115.599 183.906 116.694C184.488 117.789 184.382 119.544 183.431 121.624L179.143 132.417H189.149C189.149 132.417 189.52 130.335 190.367 128.252L193.49 120.363C195.396 115.432 193.014 113.46 191.477 112.473C195.29 112.09 198.043 110.281 199.577 106.938L202.806 99.9259C204.659 95.9811 204.076 93.516 203.229 92.1461V92.1499ZM193.224 99.547L191.424 103.217L190.471 105.572C189.624 107.27 188.3 108.257 186.659 108.257H179.724L184.965 96.4775H192.484C192.484 96.4775 193.224 96.5874 193.437 97.08C193.808 97.5726 193.702 98.4518 193.224 99.547ZM97.8244 92.1499C96.5 90.0676 94.1183 89.3002 92.2122 89.3002H73.2592L53.6183 132.364H63.5183L71.0366 115.489H76.2775C76.2775 115.489 77.8122 115.599 78.5531 116.694C79.1347 117.789 79.0286 119.544 78.0756 121.624L73.7878 132.417H83.7939C83.7939 132.417 84.1653 130.335 85.0122 128.252L88.1347 120.363C90.0408 115.432 87.6592 113.46 86.1225 112.473C89.9347 112.09 92.6878 110.281 94.2225 106.938L97.4512 99.9259C99.2512 95.9811 98.6695 93.516 97.8225 92.1461L97.8244 92.1499ZM87.8183 99.547L86.0183 103.217L85.0653 105.572C84.2183 107.27 82.8939 108.257 81.2531 108.257H74.3183L79.6653 96.4775H87.0775C87.0775 96.4775 87.8183 96.5874 88.0305 97.08C88.4019 97.5726 88.2958 98.4518 87.8183 99.547ZM121.435 123.981L129.057 107.382L132.392 99.9846C135.833 92.3697 131.915 89.0274 127.045 89.0274H115.027C109.998 89.0274 106.449 91.4924 104.174 96.5324L98.5615 108.805L93.4267 119.597C88.3981 130.554 95.9145 132.362 99.6206 132.362H107.243C114.761 132.582 118.574 130.389 121.431 123.98L121.435 123.981ZM108.094 124.474H103.7C102.959 124.474 101.424 124.254 102.641 121.624L112.753 98.9975C113.706 96.8053 114.765 96.4225 116.088 96.4225H121.435C122.494 96.3126 123.447 96.9152 122.653 98.7777L112.647 120.912C111.218 123.98 110.265 124.474 108.094 124.474ZM161.353 89.0823H151.241C146 89.0823 141.712 91.7672 139.541 96.5874L128.953 119.707C125.724 126.719 127.524 132.472 136.365 132.472H144.253C150.553 132.472 153.677 131.485 156.535 125.075L163.788 108.475H148.91L145.682 115.597H150.816L147.957 122.117C147.11 124.089 146.529 124.472 144.516 124.472H139.382C137.847 124.472 137.21 123.595 138.163 121.623L148.645 99.0505C149.704 96.8583 150.339 96.4756 151.874 96.4756H157.221C158.543 96.4756 159.233 97.0781 158.439 98.8307C158.174 99.3234 156.057 104.091 156.057 104.091H165.482L167.653 99.4333C170.671 92.4208 167.918 89.1884 161.353 89.0785V89.0823ZM281.318 132.364L301.065 89.1922H290.847L271.153 132.366L281.318 132.364ZM326.265 89.1922L303.235 127.161L314.935 89.1922H304.294L294.553 132.366H308.265L336.959 89.1922H326.265ZM247.7 117.352L246.853 101.355C246.747 99.492 247.224 96.8072 250.559 96.8072H257.494L260.935 89.1922H249.235C240.077 89.1922 236.847 94.9446 237.218 101.847L238.065 119.654C238.171 122.996 237.006 124.421 233.988 124.421H226.1L222.659 132.311H235.047C243.412 132.366 248.177 126.829 247.7 117.352ZM271.047 117.352L270.2 101.355C270.094 99.492 270.571 96.8072 273.906 96.8072H280.841L284.282 89.1922H272.582C264.959 89.1922 260.088 93.5198 260.565 101.847L261.412 119.654C261.518 122.996 260.353 124.421 257.335 124.421H249.712L246.112 132.311H258.394C267.447 132.366 271.524 125.569 271.047 117.352ZM213.818 89.1922L194.282 132.364H218.953L222.553 124.474H207.518L212.865 113.079H225.518L228.853 105.792H216.094L220.171 96.8072H233.247L236.741 89.1922H213.818ZM340.294 89.1922L320.759 132.311H345.429L349.029 124.421H333.994L339.341 112.971H351.994L355.329 105.739H342.571L346.647 96.7541H359.776C359.882 96.7541 363.218 89.1392 363.218 89.1392H340.294V89.1922ZM40.3817 109.847L46.3634 96.3145H52.8225C54.1469 96.3145 55.2042 97.027 53.8817 99.8766L50.5469 107.109C49.7 108.971 48.5347 109.794 46.7347 109.794H40.3817V109.847ZM37.0469 117.352H46.8408C53.1408 117.352 56.4756 115.379 59.1225 109.847L63.4103 100.259C66.7451 92.7543 62.6695 89.3021 58.3817 89.3021H39.5347L20 132.474H30.2714L37.0488 117.352H37.0469ZM369.624 92.2598C369.624 89.3002 371.9 87 374.759 87C377.618 87 380 89.3552 380 92.2598C380 95.2175 377.618 97.6844 374.759 97.6844C371.9 97.6844 369.624 95.2194 369.624 92.2598ZM379.418 92.2598C379.403 91.0292 378.907 89.8534 378.036 88.9833C377.166 88.1133 375.99 87.6177 374.759 87.6025C372.271 87.6025 370.206 89.6848 370.206 92.2598C370.206 94.9446 372.218 97.0269 374.759 97.0269C377.247 97.0819 379.418 94.9996 379.418 92.2598ZM377.353 95.3823H376.506L374.812 92.5326H373.488V95.3823H372.747V89.3552H375.235C375.712 89.3552 376.294 89.3552 376.665 89.5749C377.141 89.7947 377.406 90.4522 377.406 90.9448C377.406 92.04 376.559 92.5345 375.5 92.5345L377.353 95.3823ZM374.653 91.9301C375.5 91.9301 376.824 92.1499 376.824 90.9429C376.824 89.9577 375.976 89.8478 375.288 89.8478H373.594V91.9301H374.653Z" fill="#197CFF"/>
</g>
</svg>
