<?xml version="1.0" encoding="UTF-8"?>
<svg id="Layer_1" data-name="Layer 1" xmlns="http://www.w3.org/2000/svg" viewBox="0 0 675 208.12">
  <defs>
    <style>
      .cls-1 {
        fill: #00b8f1;
      }

      .cls-2 {
        fill: #012985;
      }
    </style>
  </defs>
  <path class="cls-2" d="M327.45,138.04c-5.55-3.07-9.9-7.43-13.06-13.06-3.16-5.63-4.74-12.13-4.74-19.49s1.62-13.86,4.87-19.49c3.25-5.63,7.69-9.98,13.32-13.06,5.63-3.07,11.91-4.61,18.84-4.61s13.21,1.54,18.84,4.61c5.63,3.08,10.07,7.43,13.32,13.06,3.25,5.63,4.87,12.13,4.87,19.49s-1.67,13.86-5,19.49c-3.34,5.63-7.84,9.99-13.51,13.06-5.67,3.08-12.02,4.61-19.04,4.61s-13.17-1.54-18.71-4.61ZM355.45,124.39c2.9-1.6,5.22-4.01,6.95-7.21,1.73-3.2,2.6-7.1,2.6-11.69,0-6.84-1.8-12.11-5.39-15.79-3.6-3.68-7.99-5.52-13.19-5.52s-9.55,1.84-13.06,5.52c-3.51,3.68-5.26,8.95-5.26,15.79s1.71,12.11,5.13,15.79c3.42,3.68,7.73,5.52,12.93,5.52,3.29,0,6.39-.8,9.29-2.4Z"/>
  <path class="cls-2" d="M418.28,84.43v34.83c0,2.43.58,4.18,1.75,5.26,1.17,1.08,3.14,1.62,5.91,1.62h8.45v15.33h-11.43c-15.33,0-23-7.45-23-22.35v-34.7h-8.58v-14.94h8.58v-17.8h18.32v17.8h16.11v14.94h-16.11Z"/>
  <path class="cls-2" d="M448.75,57.86c-2.12-2.03-3.18-4.57-3.18-7.6s1.06-5.57,3.18-7.6c2.12-2.03,4.79-3.05,7.99-3.05s5.87,1.02,7.99,3.05c2.12,2.04,3.18,4.57,3.18,7.6s-1.06,5.57-3.18,7.6c-2.12,2.04-4.79,3.05-7.99,3.05s-5.87-1.02-7.99-3.05ZM465.71,69.49v71.99h-18.19v-71.99h18.19Z"/>
  <path class="cls-2" d="M516.65,84.43h-12.61v57.05h-18.45v-57.05h-8.19v-14.94h8.19v-3.64c0-8.84,2.51-15.33,7.54-19.49,5.02-4.16,12.61-6.11,22.74-5.85v15.33c-4.42-.09-7.49.65-9.23,2.21-1.73,1.56-2.6,4.38-2.6,8.45v2.99h12.61v14.94Z"/>
  <path class="cls-1" d="M529.71,57.86c-2.12-2.03-3.18-4.57-3.18-7.6s1.06-5.57,3.18-7.6c2.12-2.03,4.79-3.05,7.99-3.05s5.87,1.02,7.99,3.05c2.12,2.04,3.18,4.57,3.18,7.6s-1.06,5.57-3.18,7.6c-2.12,2.04-4.79,3.05-7.99,3.05s-5.87-1.02-7.99-3.05ZM546.67,69.49v71.99h-18.19v-71.99h18.19ZM532.93,54.8c-1.27-1.22-1.9-2.73-1.9-4.54s.63-3.32,1.9-4.54c1.27-1.22,2.86-1.82,4.77-1.82s3.5.61,4.77,1.82c1.27,1.22,1.9,2.73,1.9,4.54s-.63,3.33-1.9,4.54c-1.27,1.22-2.86,1.82-4.77,1.82s-3.51-.61-4.77-1.82Z"/>
  <path class="cls-1" d="M565.83,57.86c-2.12-2.03-3.18-4.57-3.18-7.6s1.06-5.57,3.18-7.6c2.12-2.03,4.79-3.05,7.99-3.05s5.87,1.02,7.99,3.05c2.12,2.04,3.18,4.57,3.18,7.6s-1.06,5.57-3.18,7.6c-2.12,2.04-4.79,3.05-7.99,3.05s-5.87-1.02-7.99-3.05ZM582.79,69.49v71.99h-18.19v-71.99h18.19Z"/>
  <path class="cls-2" d="M142.51,25.74c-39.55,0-71.73,32.48-71.73,72.4s32.18,72.39,71.73,72.39c11.28,0,21.93-2.64,31.43-7.34l-22.52-22.72c-2.87.63-5.86.95-8.91.95-23.65,0-42.89-19.41-42.89-43.28s19.25-43.29,42.89-43.29,42.88,19.43,42.88,43.29c0,7.97-2.14,15.44-5.89,21.86l20.69,21.1c8.82-12.03,14.04-26.89,14.04-42.96,0-39.92-32.18-72.4-71.71-72.4Z"/>
  <polygon class="cls-2" points="224.76 172.21 207.23 189.74 188.71 171.22 167.02 149.56 156.34 138.88 176.38 123.37 187.48 134.58 207.88 155.17 224.76 172.21"/>
  <path class="cls-2" d="M296.26,69.49v71.99h-18.32v-9.1c-2.34,3.12-5.39,5.57-9.16,7.34-3.77,1.77-7.86,2.66-12.28,2.66-5.63,0-10.61-1.19-14.94-3.57-4.33-2.38-7.73-5.89-10.2-10.53-2.47-4.63-3.7-10.16-3.7-16.57v-42.23h18.19v39.63c0,5.72,1.43,10.12,4.29,13.19,2.86,3.08,6.76,4.61,11.7,4.61s8.97-1.54,11.83-4.61c2.86-3.07,4.29-7.47,4.29-13.19v-39.63h18.32Z"/>
  <polygon class="cls-1" points="222.5 52.04 210.74 63.8 194.16 80.39 147.75 126.8 110.35 89.39 124.94 74.8 147.75 97.61 183.75 61.6 198.94 46.42 207.91 37.45 222.5 52.04"/>
</svg>